<?xml version="1.0" encoding="utf-8"?><svg viewBox="0 0 258 53" xmlns="http://www.w3.org/2000/svg" xmlns:xlink="http://www.w3.org/1999/xlink"><style>:root>svg{display:none}:root>svg:target{display:block}</style><svg fill="none" viewBox="0 0 258 53" id="Black" xmlns="http://www.w3.org/2000/svg"><path d="M35.468 37.738h.626v.39h-8.486v-.351h.586a1.49 1.49 0 0 0 1.134-.506c.313-.364.444-.753.391-1.168l-1.76-19.587-8.212 18.185c-.73 1.583-1.173 2.907-1.33 3.972h-.39L8.014 17.062l-1.682 19.04c-.052.416.078.805.391 1.169.313.337.678.506 1.095.506h.626v.35H.858v-.389h.626c.73 0 1.356-.22 1.877-.662.548-.441.873-1.038.978-1.791l2.933-24.96h.39l10.912 23.48 10.676-23.48h.352l3.011 24.96c.13 1.038.652 1.765 1.565 2.18.39.182.82.273 1.29.273Zm10.516-21.961c2.008-1.039 4.21-1.558 6.61-1.558 2.424 0 4.64.52 6.648 1.558 2.007 1.012 3.598 2.453 4.77 4.322 1.2 1.869 1.8 3.985 1.8 6.347 0 2.362-.6 4.478-1.8 6.347-1.172 1.869-2.763 3.323-4.77 4.361-2.008 1.012-4.067 1.519-6.18 1.519-2.111 0-3.975-.299-5.592-.896-1.616-.597-3.024-1.428-4.223-2.492-1.174-1.064-2.112-2.362-2.816-3.894-.678-1.531-1.017-3.323-1.017-5.373 0-2.077.587-4.05 1.76-5.92 1.2-1.868 2.803-3.309 4.81-4.321Zm-.743 18.651c1.981 2.051 4.432 3.077 7.352 3.077s5.371-1.026 7.353-3.077c1.981-2.076 2.972-4.737 2.972-7.982s-.991-5.893-2.972-7.944c-1.982-2.076-4.433-3.115-7.353-3.115s-5.37 1.039-7.352 3.115c-1.955 2.051-2.933 4.699-2.933 7.944s.978 5.906 2.933 7.982Zm32.202-18.651c2.007-1.039 4.21-1.558 6.609-1.558 2.425 0 4.64.52 6.648 1.558 2.008 1.012 3.598 2.453 4.771 4.322 1.2 1.869 1.8 3.985 1.8 6.347 0 2.362-.6 4.478-1.8 6.347-1.173 1.869-2.763 3.323-4.77 4.361-2.008 1.012-4.068 1.519-6.18 1.519s-3.976-.299-5.592-.896c-1.617-.597-3.024-1.428-4.224-2.492-1.173-1.064-2.111-2.362-2.815-3.894-.679-1.531-1.018-3.323-1.018-5.373 0-2.077.587-4.05 1.76-5.92 1.2-1.868 2.803-3.309 4.81-4.321ZM76.7 34.428c1.981 2.051 4.432 3.077 7.352 3.077s5.37-1.026 7.352-3.077c1.982-2.076 2.972-4.737 2.972-7.982s-.99-5.893-2.972-7.944c-1.981-2.076-4.432-3.115-7.352-3.115s-5.37 1.039-7.352 3.115c-1.956 2.051-2.933 4.699-2.933 7.944s.978 5.906 2.933 7.982Zm51.916-19.274c-.574 0-1.069.194-1.486.584a1.859 1.859 0 0 0-.665 1.363v16.587c0 1.506.091 2.934.274 4.284l.078.7h-.352l-20.336-19.196v16.237c0 .571.209 1.052.626 1.441.417.39.925.584 1.525.584h.665v.39h-7.391v-.39h.664c.6 0 1.109-.195 1.526-.584.417-.39.625-.87.625-1.44V19.047c0-1.584-.091-2.999-.273-4.245l-.079-.623.431.04 20.296 19.04V17.1c-.052-.545-.286-.999-.704-1.362a2.103 2.103 0 0 0-1.486-.584h-.665v-.39h7.392v.39h-.665Zm24.571-3.077h-2.503v23.208c0 .675.235 1.259.704 1.752.495.468 1.095.701 1.799.701h.469l.039.39h-8.564v-.39h.508c.678 0 1.252-.233 1.721-.7a2.401 2.401 0 0 0 .782-1.714V13.713A2.401 2.401 0 0 0 147.36 12a2.284 2.284 0 0 0-1.721-.74h-.508v-.39h10.559c2.372 0 4.236.662 5.592 1.986 1.356 1.298 2.034 2.998 2.034 5.101 0 2.077-.652 3.881-1.956 5.413-1.277 1.505-2.842 2.258-4.693 2.258.391.182.848.545 1.369 1.09.548.52 1.03 1.065 1.447 1.636 2.242 3.193 3.702 5.166 4.38 5.919.678.726 1.16 1.233 1.447 1.518.287.26.6.52.939.779.339.26.678.467 1.016.623a5.53 5.53 0 0 0 2.425.545v.39h-2.151c-1.121 0-2.164-.195-3.128-.585-.965-.415-1.695-.83-2.19-1.246a27.84 27.84 0 0 1-1.252-1.246c-.339-.415-1.303-1.765-2.894-4.05-1.59-2.284-2.516-3.582-2.776-3.893a14.776 14.776 0 0 0-.822-.974c-.834-.882-1.668-1.324-2.503-1.324v-.389c.209.026.483.039.822.039.339 0 .756-.013 1.251-.039 3.233-.078 5.267-1.428 6.101-4.05.156-.519.235-.999.235-1.44v-.896c-.053-1.74-.509-3.141-1.369-4.205-.861-1.065-2.021-1.636-3.481-1.714a58.237 58.237 0 0 0-2.346-.039Zm18.751 25.661c.704 0 1.317-.208 1.838-.623.522-.415.782-.909.782-1.48V17.256c0-.57-.26-1.064-.782-1.48-.521-.415-1.147-.622-1.877-.622h-.508v-.39h8.838v.39h-.508c-.704 0-1.317.194-1.838.584-.496.39-.77.87-.822 1.44v18.496c.026.571.3 1.065.822 1.48.521.39 1.134.584 1.838.584h.508l.039.39h-8.877v-.39h.547Zm37.775-22.584h-.313c-.573 0-1.134.194-1.681.584-.548.363-1.017.921-1.408 1.674-5.684 12.149-8.643 18.509-8.877 19.08-.444 1.09-.678 1.817-.704 2.18h-.352l-9.66-21.221c-.756-1.532-1.76-2.297-3.011-2.297h-.313v-.39h8.017v.39h-.313c-.495 0-.873.181-1.134.545-.235.337-.352.649-.352.934 0 .286.039.584.117.896l7.001 16.977 7.195-16.9c.131-.337.196-.648.196-.934 0-.311-.13-.636-.391-.973-.261-.364-.652-.545-1.173-.545h-.274v-.39h7.43v.39Zm3.641 22.584c.626 0 1.147-.195 1.564-.584.444-.415.678-.909.704-1.48V17.178c0-.57-.221-1.05-.665-1.44-.443-.39-.977-.584-1.603-.584h-.547v-.39h11.419c1.069 0 2.007-.078 2.816-.233.808-.156 1.329-.286 1.564-.39v4.44l-.43-.04v-.584c0-.545-.183-1.012-.548-1.402-.365-.389-.834-.584-1.408-.584h-8.134v9.89h6.687c.522 0 .913-.155 1.174-.466.286-.312.43-.701.43-1.169v-.506h.43v5.452h-.43v-.507c0-.726-.274-1.22-.821-1.48a2.775 2.775 0 0 0-.665-.155h-6.805v9.89h6.14c1.199 0 2.203-.207 3.011-.623.834-.415 1.46-.908 1.877-1.48.444-.57.887-1.323 1.33-2.258h.391l-2.151 5.569h-15.877v-.39h.547Zm28.905-21.767h-2.072v19.664c.026.805.391 1.415 1.095 1.83.339.182.717.273 1.134.273h.508l.039.39h-8.017v-.39h.548c.599 0 1.108-.195 1.525-.584.443-.415.665-.909.665-1.48V17.178c0-.57-.222-1.05-.665-1.44-.417-.39-.926-.584-1.525-.584h-.548v-.39h9.816c2.451 0 4.38.558 5.788 1.675 1.434 1.116 2.151 2.582 2.151 4.4 0 1.817-.574 3.335-1.721 4.556-1.147 1.22-2.607 1.92-4.38 2.102.834.364 1.838 1.376 3.011 3.037-.026 0 .418.572 1.33 1.714a301.895 301.895 0 0 0 2.229 2.687 26.526 26.526 0 0 0 1.408 1.44c.965.909 2.073 1.363 3.324 1.363v.39h-1.212c-2.06 0-3.676-.403-4.849-1.208a11.434 11.434 0 0 1-2.425-2.22c-.156-.207-.821-1.115-1.995-2.725a302.075 302.075 0 0 0-1.838-2.609c-1.407-1.739-2.724-2.609-3.949-2.609v-.389c3.05 0 4.888-.156 5.514-.467.86-.442 1.447-.909 1.76-1.402a6.324 6.324 0 0 0 .977-3.427c0-1.583-.469-2.803-1.408-3.66-.938-.857-2.203-1.324-3.793-1.402a66.515 66.515 0 0 0-2.425-.039Z" fill="#272727"/><path d="M97.274 26.124c-.36-10.682-9.929-12.497-14.409-12.322 1.797.558 10.385 2.094 11.355 12.322.776 8.183-7.246 12.02-11.355 12.916 5.127-.023 14.768-2.234 14.41-12.916Z" fill="#EFC58B"/></svg><svg fill="none" viewBox="0 0 258 53" id="White" xmlns="http://www.w3.org/2000/svg"><path d="M35.468 37.738h.626v.39h-8.486v-.351h.586a1.49 1.49 0 0 0 1.134-.506c.313-.364.444-.753.391-1.168l-1.76-19.587-8.212 18.185c-.73 1.583-1.173 2.907-1.33 3.972h-.39L8.014 17.062l-1.682 19.04c-.052.416.078.805.391 1.169.313.337.678.506 1.095.506h.626v.35H.858v-.389h.626c.73 0 1.356-.22 1.877-.662.548-.441.873-1.038.978-1.791l2.933-24.96h.39l10.912 23.48 10.676-23.48h.352l3.011 24.96c.13 1.038.652 1.765 1.565 2.18.39.182.82.273 1.29.273Zm10.516-21.961c2.008-1.039 4.21-1.558 6.61-1.558 2.424 0 4.64.52 6.648 1.558 2.007 1.012 3.598 2.453 4.77 4.322 1.2 1.869 1.8 3.985 1.8 6.347 0 2.362-.6 4.478-1.8 6.347-1.172 1.869-2.763 3.323-4.77 4.361-2.008 1.012-4.067 1.519-6.18 1.519-2.111 0-3.975-.299-5.592-.896-1.616-.597-3.024-1.428-4.223-2.492-1.174-1.064-2.112-2.362-2.816-3.894-.678-1.531-1.017-3.323-1.017-5.373 0-2.077.587-4.05 1.76-5.92 1.2-1.868 2.803-3.309 4.81-4.321Zm-.743 18.651c1.981 2.051 4.432 3.077 7.352 3.077s5.371-1.026 7.353-3.077c1.981-2.076 2.972-4.737 2.972-7.982s-.991-5.893-2.972-7.944c-1.982-2.076-4.433-3.115-7.353-3.115s-5.37 1.039-7.352 3.115c-1.955 2.051-2.933 4.699-2.933 7.944s.978 5.906 2.933 7.982Zm32.202-18.651c2.007-1.039 4.21-1.558 6.609-1.558 2.425 0 4.64.52 6.648 1.558 2.008 1.012 3.598 2.453 4.771 4.322 1.2 1.869 1.8 3.985 1.8 6.347 0 2.362-.6 4.478-1.8 6.347-1.173 1.869-2.763 3.323-4.77 4.361-2.008 1.012-4.068 1.519-6.18 1.519s-3.976-.299-5.592-.896c-1.617-.597-3.024-1.428-4.224-2.492-1.173-1.064-2.111-2.362-2.815-3.894-.679-1.531-1.018-3.323-1.018-5.373 0-2.077.587-4.05 1.76-5.92 1.2-1.868 2.803-3.309 4.81-4.321ZM76.7 34.428c1.981 2.051 4.432 3.077 7.352 3.077s5.37-1.026 7.352-3.077c1.982-2.076 2.972-4.737 2.972-7.982s-.99-5.893-2.972-7.944c-1.981-2.076-4.432-3.115-7.352-3.115s-5.37 1.039-7.352 3.115c-1.956 2.051-2.933 4.699-2.933 7.944s.978 5.906 2.933 7.982Zm51.916-19.274c-.574 0-1.069.194-1.486.584a1.859 1.859 0 0 0-.665 1.363v16.587c0 1.506.091 2.934.274 4.284l.078.7h-.352l-20.336-19.196v16.237c0 .571.209 1.052.626 1.441.417.39.925.584 1.525.584h.665v.39h-7.391v-.39h.664c.6 0 1.109-.195 1.526-.584.417-.39.625-.87.625-1.44V19.047c0-1.584-.091-2.999-.273-4.245l-.079-.623.431.04 20.296 19.04V17.1c-.052-.545-.286-.999-.704-1.362a2.103 2.103 0 0 0-1.486-.584h-.665v-.39h7.392v.39h-.665Zm24.571-3.077h-2.503v23.208c0 .675.235 1.259.704 1.752.495.468 1.095.701 1.799.701h.469l.039.39h-8.564v-.39h.508c.678 0 1.252-.233 1.721-.7a2.401 2.401 0 0 0 .782-1.714V13.713A2.401 2.401 0 0 0 147.36 12a2.284 2.284 0 0 0-1.721-.74h-.508v-.39h10.559c2.372 0 4.236.662 5.592 1.986 1.356 1.298 2.034 2.998 2.034 5.101 0 2.077-.652 3.881-1.956 5.413-1.277 1.505-2.842 2.258-4.693 2.258.391.182.848.545 1.369 1.09.548.52 1.03 1.065 1.447 1.636 2.242 3.193 3.702 5.166 4.38 5.919.678.726 1.16 1.233 1.447 1.518.287.26.6.52.939.779.339.26.678.467 1.016.623a5.53 5.53 0 0 0 2.425.545v.39h-2.151c-1.121 0-2.164-.195-3.128-.585-.965-.415-1.695-.83-2.19-1.246a27.84 27.84 0 0 1-1.252-1.246c-.339-.415-1.303-1.765-2.894-4.05-1.59-2.284-2.516-3.582-2.776-3.893a14.776 14.776 0 0 0-.822-.974c-.834-.882-1.668-1.324-2.503-1.324v-.389c.209.026.483.039.822.039.339 0 .756-.013 1.251-.039 3.233-.078 5.267-1.428 6.101-4.05.156-.519.235-.999.235-1.44v-.896c-.053-1.74-.509-3.141-1.369-4.205-.861-1.065-2.021-1.636-3.481-1.714a58.237 58.237 0 0 0-2.346-.039Zm18.751 25.661c.704 0 1.317-.208 1.838-.623.522-.415.782-.909.782-1.48V17.256c0-.57-.26-1.064-.782-1.48-.521-.415-1.147-.622-1.877-.622h-.508v-.39h8.838v.39h-.508c-.704 0-1.317.194-1.838.584-.496.39-.77.87-.822 1.44v18.496c.026.571.3 1.065.822 1.48.521.39 1.134.584 1.838.584h.508l.039.39h-8.877v-.39h.547Zm37.775-22.584h-.313c-.573 0-1.134.194-1.681.584-.548.363-1.017.921-1.408 1.674-5.684 12.149-8.643 18.509-8.877 19.08-.444 1.09-.678 1.817-.704 2.18h-.352l-9.66-21.221c-.756-1.532-1.76-2.297-3.011-2.297h-.313v-.39h8.017v.39h-.313c-.495 0-.873.181-1.134.545-.235.337-.352.649-.352.934 0 .286.039.584.117.896l7.001 16.977 7.195-16.9c.131-.337.196-.648.196-.934 0-.311-.13-.636-.391-.973-.261-.364-.652-.545-1.173-.545h-.274v-.39h7.43v.39Zm3.641 22.584c.626 0 1.147-.195 1.564-.584.444-.415.678-.909.704-1.48V17.178c0-.57-.221-1.05-.665-1.44-.443-.39-.977-.584-1.603-.584h-.547v-.39h11.419c1.069 0 2.007-.078 2.816-.233.808-.156 1.329-.286 1.564-.39v4.44l-.43-.04v-.584c0-.545-.183-1.012-.548-1.402-.365-.389-.834-.584-1.408-.584h-8.134v9.89h6.687c.522 0 .913-.155 1.174-.466.286-.312.43-.701.43-1.169v-.506h.43v5.452h-.43v-.507c0-.726-.274-1.22-.821-1.48a2.775 2.775 0 0 0-.665-.155h-6.805v9.89h6.14c1.199 0 2.203-.207 3.011-.623.834-.415 1.46-.908 1.877-1.48.444-.57.887-1.323 1.33-2.258h.391l-2.151 5.569h-15.877v-.39h.547Zm28.905-21.767h-2.072v19.664c.026.805.391 1.415 1.095 1.83.339.182.717.273 1.134.273h.508l.039.39h-8.017v-.39h.548c.599 0 1.108-.195 1.525-.584.443-.415.665-.909.665-1.48V17.178c0-.57-.222-1.05-.665-1.44-.417-.39-.926-.584-1.525-.584h-.548v-.39h9.816c2.451 0 4.38.558 5.788 1.675 1.434 1.116 2.151 2.582 2.151 4.4 0 1.817-.574 3.335-1.721 4.556-1.147 1.22-2.607 1.92-4.38 2.102.834.364 1.838 1.376 3.011 3.037-.026 0 .418.572 1.33 1.714a301.895 301.895 0 0 0 2.229 2.687 26.526 26.526 0 0 0 1.408 1.44c.965.909 2.073 1.363 3.324 1.363v.39h-1.212c-2.06 0-3.676-.403-4.849-1.208a11.434 11.434 0 0 1-2.425-2.22c-.156-.207-.821-1.115-1.995-2.725a302.075 302.075 0 0 0-1.838-2.609c-1.407-1.739-2.724-2.609-3.949-2.609v-.389c3.05 0 4.888-.156 5.514-.467.86-.442 1.447-.909 1.76-1.402a6.324 6.324 0 0 0 .977-3.427c0-1.583-.469-2.803-1.408-3.66-.938-.857-2.203-1.324-3.793-1.402a66.515 66.515 0 0 0-2.425-.039Z" fill="#fff"/><path d="M97.274 26.124c-.36-10.682-9.929-12.497-14.409-12.322 1.797.558 10.385 2.094 11.355 12.322.776 8.183-7.246 12.02-11.355 12.916 5.127-.023 14.768-2.234 14.41-12.916Z" fill="#EFC58B"/></svg><svg stroke-miterlimit="10" style="fill-rule:nonzero;clip-rule:evenodd;stroke-linecap:round;stroke-linejoin:round" viewBox="0 0 134.62 45" xml:space="preserve" id="appmarket" xmlns="http://www.w3.org/2000/svg"><path d="M123.9 0H8.48a14.25 14.25 0 0 0-2.25.2 7.27 7.27 0 0 0-2.14.7 7.22 7.22 0 0 0-1.84 1.35A7 7 0 0 0 .92 4.07a7.36 7.36 0 0 0-.7 2.14 14.25 14.25 0 0 0-.2 2.29v28c.007.754.073 1.507.2 2.25a7.43 7.43 0 0 0 .7 2.15 6.94 6.94 0 0 0 1.33 1.81c.53.539 1.145.988 1.82 1.33a7.59 7.59 0 0 0 2.14.71c.745.116 1.496.183 2.25.2h117.7a16.925 16.925 0 0 0 2.25-.2 7.99 7.99 0 0 0 2.15-.71 7.29 7.29 0 0 0 3.14-3.14 7.411 7.411 0 0 0 .7-2.15 15.43 15.43 0 0 0 .21-2.25v-28a15.57 15.57 0 0 0-.21-2.25 7.346 7.346 0 0 0-.7-2.14 7.185 7.185 0 0 0-1.32-1.86 7.397 7.397 0 0 0-1.82-1.33 7.636 7.636 0 0 0-2.15-.7 14.146 14.146 0 0 0-2.25-.2h-1L123.9 0Z" fill="#b7b7b7"/><path d="M9.48 44.02h-1a13.433 13.433 0 0 1-2.1-.18 6.36 6.36 0 0 1-1.9-.64 5.75 5.75 0 0 1-1.57-1.14A5.94 5.94 0 0 1 1.8 40.5a6.52 6.52 0 0 1-.61-1.87A13 13 0 0 1 1 36.5v-28c.006-.704.07-1.406.19-2.1a6.52 6.52 0 0 1 .61-1.9 6.19 6.19 0 0 1 1.14-1.56c.45-.46.97-.849 1.54-1.15a6.56 6.56 0 0 1 1.9-.61A14.08 14.08 0 0 1 8.48 1h117.64c.7.007 1.399.067 2.09.18.655.11 1.289.318 1.88.62a6.074 6.074 0 0 1 1.59 1.14 6.22 6.22 0 0 1 1.15 1.56c.295.585.497 1.213.6 1.86.115.701.182 1.41.2 2.12V36.5c-.02.697-.083 1.391-.19 2.08a6.695 6.695 0 0 1-.61 1.88 6.204 6.204 0 0 1-1.14 1.56 6.33 6.33 0 0 1-1.58 1.15c-.592.3-1.226.509-1.88.62-.694.116-1.396.176-2.1.18H9.48v.05Z"/><path d="M27.87 22.84a5.54 5.54 0 0 1 2.61-4.67 5.68 5.68 0 0 0-4.49-2.43c-1.89-.2-3.72 1.13-4.69 1.13-.97 0-2.42-1.11-4.02-1.08a6 6 0 0 0-5 3.07c-2.17 3.77-.55 9.3 1.53 12.35 1 1.49 2.26 3.16 3.86 3.1 1.6-.06 2.14-1 4-1 1.86 0 2.41 1 4 1 1.59 0 2.73-1.5 3.73-3a12.32 12.32 0 0 0 1.71-3.48 5.39 5.39 0 0 1-3.24-4.99ZM24.79 13.74a5.48 5.48 0 0 0 1.26-3.93 5.53 5.53 0 0 0-3.57 1.87 5.17 5.17 0 0 0-1.33 3.82 4.61 4.61 0 0 0 3.64-1.76ZM47.59 30.5h-5.32l-1.28 3.78h-2.26l5-14h2.34l5 14h-2.2l-1.28-3.78Zm-4.77-1.74h4.22l-2.08-6.13h-.06l-2.08 6.13ZM62.06 29.22c0 3.16-1.7 5.19-4.25 5.19a3.44 3.44 0 0 1-3.21-1.78v5.05h-2.12V24.12h2v1.7a3.6 3.6 0 0 1 3.25-1.8c2.62 0 4.33 2.04 4.33 5.2Zm-2.15 0c0-2.07-1.07-3.42-2.69-3.42-1.62 0-2.68 1.38-2.68 3.42s1.08 3.42 2.68 3.42 2.69-1.34 2.69-3.42ZM73.27 29.22c0 3.16-1.7 5.19-4.25 5.19a3.44 3.44 0 0 1-3.21-1.78v5.05h-2.14V24.12h2v1.7a3.61 3.61 0 0 1 3.25-1.8c2.64 0 4.35 2.04 4.35 5.2Zm-2.15 0c0-2.07-1.07-3.42-2.69-3.42-1.62 0-2.68 1.38-2.68 3.42s1.08 3.42 2.68 3.42 2.69-1.34 2.69-3.42ZM80.68 30.42c.15 1.38 1.5 2.29 3.34 2.29 1.84 0 3-.91 3-2.16 0-1.08-.77-1.73-2.58-2.18l-1.81-.43c-2.57-.62-3.76-1.82-3.76-3.77 0-2.41 2.1-4.07 5.09-4.07 2.99 0 5 1.66 5 4.07h-2.04c-.13-1.39-1.28-2.23-3-2.23s-2.84.85-2.84 2.09c0 1 .74 1.56 2.54 2l1.54.38c2.86.68 4 1.83 4 3.87 0 2.61-2.08 4.25-5.39 4.25-3.1 0-5.19-1.6-5.32-4.12l2.23.01ZM93.77 21.71v2.41h1.93v1.66h-1.93v5.61c0 .88.38 1.28 1.23 1.28.23-.003.461-.02.69-.05v1.65c-.382.074-.77.108-1.16.1-2.06 0-2.87-.78-2.87-2.75v-5.84h-1.48v-1.66h1.48v-2.41h2.11ZM96.82 29.22c0-3.21 1.89-5.22 4.83-5.22 2.94 0 4.84 2 4.84 5.22 0 3.22-1.87 5.21-4.84 5.21-2.97 0-4.83-2-4.83-5.21Zm7.54 0c0-2.2-1-3.5-2.71-3.5s-2.7 1.31-2.7 3.5 1 3.49 2.7 3.49c1.7 0 2.71-1.29 2.71-3.49ZM108.21 24.12h2v1.74a2.42 2.42 0 0 1 2.45-1.84c.242.002.483.025.72.07v2a2.861 2.861 0 0 0-.94-.13 2.11 2.11 0 0 0-2.18 2.35v6h-2.09l.04-10.19ZM123.06 31.32c-.28 1.85-2.08 3.11-4.39 3.11-3 0-4.8-2-4.8-5.17s1.85-5.26 4.71-5.26 4.59 1.93 4.59 5v.72h-7.19v.12a2.661 2.661 0 0 0 2.74 2.89 2.3 2.3 0 0 0 2.35-1.43l1.99.02Zm-7.07-3h5.09a2.45 2.45 0 0 0-2.5-2.59 2.58 2.58 0 0 0-2.59 2.55v.04ZM41.33 12.66h.9a1.13 1.13 0 0 0 1.25-1.07c0-.62-.46-1-1.25-1a1.21 1.21 0 0 0-1.36 1h-1a2.1 2.1 0 0 1 2.37-2c1.35.07 2.24.81 2.24 1.91a1.56 1.56 0 0 1-1.22 1.54v.08a1.57 1.57 0 0 1 1.5 1.62 2.25 2.25 0 0 1-2.51 2c-1.46 0-2.46-.79-2.52-2h1c.06.64.65 1.06 1.52 1.06s1.44-.47 1.44-1.12c0-.65-.54-1.08-1.47-1.08h-.93l.04-.94ZM45.93 15.1c0-.91.68-1.44 1.89-1.51l1.37-.09v-.44c0-.53-.35-.83-1-.83s-.94.2-1.05.56h-1c.1-.87.92-1.43 2.07-1.43s2 .63 2 1.7v3.44h-1v-.71h-.08a1.69 1.69 0 0 1-1.52.8 1.54 1.54 0 0 1-1.68-1.49Zm3.26-.43v-.42l-1.24.08c-.69 0-1 .28-1 .73 0 .45.39.72.94.72a1.2 1.2 0 0 0 1.3-1.11ZM52.84 12.31v4.19h-1v-5h3.34v.84l-2.34-.03ZM61.23 14c0 1.61-.81 2.62-2.09 2.62a1.67 1.67 0 0 1-1.56-.85h-.1v2.45h-1V11.5h1v.84h.07a1.75 1.75 0 0 1 1.59-.92c1.28-.03 2.09.97 2.09 2.58Zm-1 0c0-1.07-.51-1.72-1.36-1.72-.85 0-1.39.66-1.39 1.72s.53 1.72 1.37 1.72c.84 0 1.36-.65 1.36-1.72h.02ZM62.57 18.35v-.85h.32a.87.87 0 0 0 .92-.71l.07-.25-1.83-5.04h1.09l1.27 4h.07l1.26-4h1.06l-1.89 5.27c-.43 1.24-.91 1.63-1.94 1.63l-.4-.05ZM67.59 15.1h1c.1.44.51.68 1.1.68.59 0 1.07-.3 1.07-.75s-.36-.72-1.07-.72h-.76v-.81h.75c.6 0 .91-.23.91-.66 0-.43-.3-.65-.91-.65-.61 0-1 .24-1 .64h-1a1.77 1.77 0 0 1 2-1.49c1.2 0 1.89.55 1.89 1.4a1 1 0 0 1-.8 1v.08a1.12 1.12 0 0 1 1 1.14c0 1-.82 1.6-2.07 1.6s-2.02-.44-2.11-1.46ZM73.2 16.5v-5h1v3.48h.08l2.32-3.48h1v5h-1V13h-.07l-2.34 3.5h-.99ZM83.05 12.31h-1.57v4.19h-1v-4.19h-1.6v-.81h4.19l-.02.81ZM88.48 15.17a2.07 2.07 0 0 1-2.2 1.46 2.3 2.3 0 0 1-2.34-2.61 2.34 2.34 0 0 1 2.34-2.65c1.41 0 2.26 1 2.26 2.56v.34h-3.62v.06a1.34 1.34 0 0 0 1.35 1.45 1.23 1.23 0 0 0 1.21-.61h1Zm-3.56-1.67h2.56a1.22 1.22 0 0 0-1.24-1.31 1.3 1.3 0 0 0-1.32 1.31ZM92.68 11.5h2.28c1 0 1.58.5 1.58 1.29a1.1 1.1 0 0 1-.86 1.07v.08a1.14 1.14 0 0 1 1.08 1.16c0 .89-.66 1.46-1.77 1.46h-2.31V11.5Zm1 .77v1.31h1c.61 0 .89-.23.89-.66 0-.43-.25-.65-.78-.65h-1.11Zm0 2v1.49h1.19c.59 0 .9-.26.9-.74s-.36-.75-1-.75h-1.09Z" fill="#fff"/></svg><svg viewBox="0 0 134.62 45" xml:space="preserve" id="googmarket" xmlns="http://www.w3.org/2000/svg"><path d="M123.9 0H8.48a14.15 14.15 0 0 0-2.25.2 7.27 7.27 0 0 0-2.14.7 7.4 7.4 0 0 0-1.84 1.35A7 7 0 0 0 .92 4.07a7.27 7.27 0 0 0-.7 2.14A13.53 13.53 0 0 0 0 8.5v28c.007.754.073 1.507.2 2.25a7.43 7.43 0 0 0 .7 2.15A6.94 6.94 0 0 0 4.07 44a7.7 7.7 0 0 0 2.14.71c.745.117 1.496.184 2.25.2h117.7a16.925 16.925 0 0 0 2.25-.2 7.755 7.755 0 0 0 2.15-.71 7.219 7.219 0 0 0 3.14-3.14 7.411 7.411 0 0 0 .7-2.15 15.43 15.43 0 0 0 .21-2.25V8.5c-.02-.754-.09-1.505-.21-2.25a7.278 7.278 0 0 0-.7-2.14 7.151 7.151 0 0 0-1.32-1.86 7.67 7.67 0 0 0-1.82-1.33 7.746 7.746 0 0 0-2.15-.7 14.146 14.146 0 0 0-2.25-.2h-1L123.9 0Z" fill="#a6a6a6"/><path d="M9.48 44h-1a13.433 13.433 0 0 1-2.1-.18 6.462 6.462 0 0 1-1.9-.64 5.69 5.69 0 0 1-1.57-1.14A5.91 5.91 0 0 1 1.8 40.5a6.51 6.51 0 0 1-.61-1.87A12.68 12.68 0 0 1 1 36.5v-28a13.44 13.44 0 0 1 .19-2.1 6.4 6.4 0 0 1 .61-1.9 6.26 6.26 0 0 1 1.14-1.56c.45-.461.97-.85 1.54-1.15a6.7 6.7 0 0 1 1.9-.61A14.75 14.75 0 0 1 8.48 1h117.64c.7.01 1.399.07 2.09.18.654.11 1.288.32 1.88.62.589.29 1.126.676 1.59 1.14.462.458.849.984 1.15 1.56.294.586.496 1.213.6 1.86.117.701.183 1.41.2 2.12v28a16.108 16.108 0 0 1-.19 2.08 6.558 6.558 0 0 1-.61 1.88 6.272 6.272 0 0 1-2.72 2.71c-.592.3-1.226.51-1.88.62-.694.12-1.396.18-2.1.18H9.48V44Z"/><path d="M10.37 10a2 2 0 0 0-.46 1.4v22.16a2 2 0 0 0 .46 1.4l.08.08 12.39-12.39v-.3L10.45 10h-.08Z" fill="#03d1ff"/><path d="m27 26.78-4.13-4.13v-.3L27 18.22l.09.06L32 21.06c1.4.79 1.4 2.09 0 2.89l-4.89 2.78-.11.05Z" fill="#feca01"/><path d="m27.06 26.72-4.22-4.22L10.37 35a1.64 1.64 0 0 0 2.08.07l14.61-8.31" fill="#f93647"/><path d="M27.06 18.28 12.45 10a1.62 1.62 0 0 0-2.08.06L22.84 22.5l4.22-4.22Z" fill="#07f077"/><path d="M68.07 24.25a4.26 4.26 0 1 0 4.27 4.25 4.19 4.19 0 0 0-4.27-4.25Zm0 6.83a2.58 2.58 0 1 1 2.41-2.58 2.46 2.46 0 0 1-2.41 2.58Zm-9.31-6.83A4.26 4.26 0 1 0 63 28.5a4.19 4.19 0 0 0-4.24-4.25Zm0 6.83a2.58 2.58 0 1 1 2.4-2.58 2.46 2.46 0 0 1-2.4 2.58Zm-11.08-5.52v1.8H52a3.77 3.77 0 0 1-1 2.27A4.42 4.42 0 0 1 47.68 31a4.8 4.8 0 1 1 0-9.6 4.64 4.64 0 0 1 3.26 1.29l1.27-1.27a6.3 6.3 0 0 0-4.53-1.82 6.61 6.61 0 1 0 0 13.21 6.07 6.07 0 0 0 4.61-1.85 6 6 0 0 0 1.56-4.23 6.264 6.264 0 0 0-.09-1.12l-6.08-.05ZM93 27a4 4 0 0 0-3.64-2.71 4 4 0 0 0-4 4.25 4.23 4.23 0 0 0 7.76 2.37l-1.45-1a2.41 2.41 0 0 1-2.09 1.17 2.15 2.15 0 0 1-2.06-1.29l5.68-2.35L93 27Zm-5.8 1.42a2.33 2.33 0 0 1 2.22-2.49 1.65 1.65 0 0 1 1.58.87l-3.8 1.62Zm-4.63 4.08h1.87V20h-1.87v12.5Zm-3.06-7.3h-.07a2.94 2.94 0 0 0-2.24-.95 4.26 4.26 0 0 0 0 8.51 2.88 2.88 0 0 0 2.24-1h.07v.61a2.18 2.18 0 0 1-2.28 2.5 2.35 2.35 0 0 1-2.14-1.51l-1.62.67a4 4 0 0 0 3.76 2.52c2.2 0 4-1.29 4-4.43v-7.61h-1.72v.69Zm-2.15 5.88a2.58 2.58 0 0 1 0-5.15 2.39 2.39 0 0 1 2.28 2.59 2.38 2.38 0 0 1-2.28 2.56ZM101.74 20h-4.47v12.5h1.87v-4.74h2.6a3.89 3.89 0 1 0 0-7.76Zm.05 6h-2.65v-4.26h2.65a2.14 2.14 0 1 1 0 4.28V26Zm11.53-1.79a3.48 3.48 0 0 0-3.32 1.93l1.65.69a1.78 1.78 0 0 1 1.71-.91 1.802 1.802 0 0 1 2 1.61v.12a4.18 4.18 0 0 0-1.95-.48c-1.78 0-3.6 1-3.6 2.82a2.89 2.89 0 0 0 3.1 2.75 2.62 2.62 0 0 0 2.38-1.23h.07v1h1.8v-4.82c-.04-2.22-1.7-3.46-3.84-3.46v-.02Zm-.22 6.85c-.61 0-1.46-.31-1.46-1.06 0-1 1.06-1.34 2-1.34a3.362 3.362 0 0 1 1.71.42 2.26 2.26 0 0 1-2.25 2v-.02Zm10.58-6.58-2.14 5.42h-.06l-2.22-5.42h-2l3.33 7.58-1.9 4.21h1.95l5.13-11.79h-2.09Zm-16.8 8h1.86V20h-1.86v12.48ZM42.05 16.77h-.73v-2h.58a2.84 2.84 0 0 0 .77-2.29v-3h4v5.26h.67v2h-.74V15.5h-4.55v1.27Zm1.39-4.3a4 4 0 0 1-.57 2.29h3v-4.52h-2.43v2.23ZM53.35 14.72a3.11 3.11 0 0 1-4.4 0 3 3 0 0 1-.88-2.22 3 3 0 0 1 .93-2.22 3.11 3.11 0 0 1 4.4 0c.584.59.904 1.39.89 2.22a3 3 0 0 1-.94 2.22Zm-3.83-.5a2.22 2.22 0 0 0 1.63.68 2.19 2.19 0 0 0 1.63-.68 2.32 2.32 0 0 0 .67-1.72 2.32 2.32 0 0 0-.67-1.72 2.19 2.19 0 0 0-1.63-.68 2.22 2.22 0 0 0-1.63.68 2.35 2.35 0 0 0-.66 1.72 2.35 2.35 0 0 0 .66 1.72ZM58.12 15.63a3 3 0 0 1-2.22-.89 3 3 0 0 1-.9-2.24 3.06 3.06 0 0 1 3.12-3.13 2.75 2.75 0 0 1 2.2 1l-.53.52a2 2 0 0 0-1.67-.77 2.25 2.25 0 0 0-1.66.67 2.31 2.31 0 0 0-.67 1.73 2.31 2.31 0 0 0 .67 1.73 2.25 2.25 0 0 0 1.66.67A2.36 2.36 0 0 0 60 14l.54.53a3 3 0 0 1-1 .78 3.09 3.09 0 0 1-1.42.32ZM63.62 15.5h-.78v-5.26h-1.67V9.5h4.12v.74h-1.67v5.26ZM70.59 9.5l-2.28 5.06a1.49 1.49 0 0 1-1.39 1.07 1.51 1.51 0 0 1-.6-.13l.2-.71a.83.83 0 0 0 .4.11.72.72 0 0 0 .42-.11.91.91 0 0 0 .27-.38l.22-.48-2-4.43h.9l1.49 3.44 1.46-3.44h.91ZM71.46 15.5v-6h4.34v6H75v-5.26h-2.8v5.26h-.74ZM77.17 15.5v-6h.77v2.57h3V9.5h.78v6h-.78v-2.71h-3v2.71h-.77ZM88 14.72a3.11 3.11 0 0 1-4.4 0 3 3 0 0 1-.89-2.22 3 3 0 0 1 .89-2.22 3.1 3.1 0 0 1 4.39 0c.584.59.904 1.39.89 2.22a3 3 0 0 1-.88 2.22Zm-3.83-.5a2.19 2.19 0 0 0 1.63.68 2.22 2.22 0 0 0 1.63-.68 2.35 2.35 0 0 0 .66-1.72 2.35 2.35 0 0 0-.66-1.72 2.22 2.22 0 0 0-1.63-.68 2.19 2.19 0 0 0-1.63.68 2.32 2.32 0 0 0-.67 1.72 2.32 2.32 0 0 0 .67 1.72ZM92 15.5v-6h2.2a1.8 1.8 0 0 1 1.22.46c.337.294.527.722.52 1.17a1.32 1.32 0 0 1-.82 1.25c.291.093.547.275.73.52.19.242.293.542.29.85.02.477-.18.937-.54 1.25a1.83 1.83 0 0 1-1.28.49L92 15.5Zm.77-3.43h1.4a.87.87 0 0 0 .7-.29.9.9 0 0 0 .27-.63.93.93 0 0 0-.26-.63.85.85 0 0 0-.67-.28H92.8l-.03 1.83Zm0 2.69h1.55a.9.9 0 0 0 .72-.31 1 1 0 0 0 0-1.35 1 1 0 0 0-.75-.31H92.8l-.03 1.97Z" fill="#fff"/><path d="M42.05 16.77L41.32 16.77L41.32 14.77L41.9 14.77C42.4847 14.1593 42.767 13.3199 42.67 12.48L42.67 9.48L46.67 9.48L46.67 14.74L47.34 14.74L47.34 16.74L46.6 16.74L46.6 15.5L42.05 15.5L42.05 16.77ZM43.44 12.47C43.4846 13.2733 43.286 14.0714 42.87 14.76L45.87 14.76L45.87 10.24L43.44 10.24L43.44 12.47Z" fill="#fff"/><path d="M53.35 14.72C52.1353 15.9357 50.1647 15.9357 48.95 14.72C48.3621 14.1337 48.0435 13.3299 48.07 12.5C48.0565 11.6626 48.3937 10.8578 49 10.28C50.2147 9.06427 52.1853 9.06427 53.4 10.28C53.9836 10.8699 54.3045 11.6703 54.29 12.5C54.3009 13.3389 53.96 14.144 53.35 14.72ZM49.52 14.22C49.9459 14.6623 50.536 14.9085 51.15 14.9C51.7647 14.9122 52.3562 14.6654 52.78 14.22C53.2316 13.764 53.4742 13.1413 53.45 12.5C53.4742 11.8587 53.2316 11.236 52.78 10.78C52.3562 10.3346 51.7647 10.0878 51.15 10.1C50.536 10.0915 49.9459 10.3377 49.52 10.78C49.0751 11.2396 48.8367 11.8607 48.86 12.5C48.8367 13.1393 49.0751 13.7604 49.52 14.22Z" fill="#fff"/><path d="M58.12 15.63C57.2886 15.6539 56.4846 15.3316 55.9 14.74C55.2996 14.1523 54.9731 13.3398 55 12.5C54.9807 11.6659 55.3029 10.86 55.892 10.2691C56.481 9.67819 57.2858 9.35342 58.12 9.37C58.9684 9.346 59.7803 9.71505 60.32 10.37L59.79 10.89C59.3913 10.3775 58.7687 10.0904 58.12 10.12C57.4978 10.1041 56.8969 10.3467 56.46 10.79C56.0047 11.2477 55.7618 11.875 55.79 12.52C55.7618 13.165 56.0047 13.7923 56.46 14.25C56.8969 14.6933 57.4978 14.9359 58.12 14.92C58.8558 14.9232 59.551 14.583 60 14L60.54 14.53C60.2661 14.8583 59.9251 15.1242 59.54 15.31C59.0989 15.5282 58.6121 15.6379 58.12 15.63Z" fill="#fff"/><path d="M63.62 15.5L62.84 15.5L62.84 10.24L61.17 10.24L61.17 9.5L65.29 9.5L65.29 10.24L63.62 10.24L63.62 15.5Z" fill="#fff"/><path d="M70.59 9.5L68.31 14.56C68.1279 15.1805 67.5664 15.6128 66.92 15.63C66.7132 15.6282 66.509 15.584 66.32 15.5L66.52 14.79C66.6419 14.8599 66.7795 14.8978 66.92 14.9C67.068 14.9074 67.2147 14.869 67.34 14.79C67.4615 14.6889 67.5545 14.558 67.61 14.41L67.83 13.93L65.83 9.5L66.73 9.5L68.22 12.94L68.22 12.94L69.68 9.5L70.59 9.5Z" fill="#fff"/><path d="M71.46 15.5L71.46 9.5L75.8 9.5L75.8 15.5L75 15.5L75 10.24L72.2 10.24L72.2 15.5L71.46 15.5Z" fill="#fff"/><path d="M77.17 15.5L77.17 9.5L77.94 9.5L77.94 12.07L80.94 12.07L80.94 9.5L81.72 9.5L81.72 15.5L80.94 15.5L80.94 12.79L77.94 12.79L77.94 15.5L77.17 15.5Z" fill="#fff"/><path d="M88 14.72C86.7853 15.9357 84.8147 15.9357 83.6 14.72C83.0084 14.1354 82.6861 13.3314 82.71 12.5C82.6861 11.6686 83.0084 10.8646 83.6 10.28C84.1816 9.69682 84.9714 9.36906 85.795 9.36906C86.6186 9.36906 87.4084 9.69682 87.99 10.28C88.5736 10.8699 88.8945 11.6703 88.88 12.5C88.9065 13.3299 88.5879 14.1337 88 14.72ZM84.17 14.22C84.5938 14.6654 85.1853 14.9122 85.8 14.9C86.414 14.9085 87.0041 14.6623 87.43 14.22C87.8749 13.7604 88.1133 13.1393 88.09 12.5C88.1133 11.8607 87.8749 11.2396 87.43 10.78C87.0041 10.3377 86.414 10.0915 85.8 10.1C85.1853 10.0878 84.5938 10.3346 84.17 10.78C83.7184 11.236 83.4758 11.8587 83.5 12.5C83.4758 13.1413 83.7184 13.764 84.17 14.22Z" fill="#fff"/><path d="M92 15.5L92 9.5L94.2 9.5C94.6499 9.49548 95.0851 9.65959 95.42 9.96C95.7571 10.2544 95.9474 10.6825 95.94 11.13C95.9517 11.6762 95.6257 12.1732 95.12 12.38L95.12 12.38C95.4115 12.4731 95.6667 12.6549 95.85 12.9C96.0408 13.1419 96.1432 13.4419 96.14 13.75C96.1595 14.2271 95.9607 14.6871 95.6 15C95.2529 15.323 94.794 15.4986 94.32 15.49L92 15.5ZM92.77 12.07L94.17 12.07C94.4354 12.0854 94.6932 11.9785 94.87 11.78C95.0396 11.6138 95.1366 11.3874 95.14 11.15C95.1362 10.9147 95.0433 10.6895 94.88 10.52C94.7098 10.3312 94.464 10.2284 94.21 10.24L92.8 10.24L92.77 12.07ZM92.77 14.76L94.32 14.76C94.5948 14.7721 94.86 14.6579 95.04 14.45C95.3896 14.0679 95.3896 13.4821 95.04 13.1C94.8451 12.8953 94.5726 12.7827 94.29 12.79L92.8 12.79L92.77 14.76Z" fill="#fff"/></svg></svg>
